<svg xmlns="http://www.w3.org/2000/svg" width="261.741" height="78.798" viewBox="0 0 261.741 78.798">
  <defs>
    <style>
      .cls-1 {
        fill: #fff;
        fill-rule: evenodd;
      }
    </style>
  </defs>
  <g id="buy1img" transform="translate(-163.5 -263.1)">
    <path id="Path_6" data-name="Path 6" class="cls-1" d="M329.148,329.194c-15.153,11.2-37.195,17.174-56.206,17.174a101.908,101.908,0,0,1-68.7-26.174c-1.378-1.286-.184-3.031,1.561-2.021a136.445,136.445,0,0,0,121.136,7.439c2.571-1.01,4.684,1.745,2.2,3.582Z" transform="translate(-3.276 -4.47)"/>
    <path id="Path_7" data-name="Path 7" class="cls-1" d="M345.513,321.7c-1.929-2.48-12.857-1.194-17.725-.551-1.469.184-1.745-1.1-.367-2.02,8.725-6.153,22.96-4.316,24.613-2.3s-.459,16.347-8.633,23.143c-1.286,1.01-2.48.459-1.929-.918C343.308,334.462,347.441,324.268,345.513,321.7Z" transform="translate(-13.304 -4.228)"/>
    <path id="Path_8" data-name="Path 8" class="cls-1" d="M314.759,271.733v-5.97a1.4,1.4,0,0,1,1.469-1.469h26.633a1.53,1.53,0,0,1,1.561,1.469v5.051c0,.827-.735,1.929-2.021,3.765l-13.776,19.654c5.143-.092,10.561.643,15.153,3.214a2.736,2.736,0,0,1,1.378,2.3v6.337c0,.918-.918,1.929-1.929,1.378a30.382,30.382,0,0,0-28.1.092,1.442,1.442,0,0,1-1.929-1.378v-6.061a6.863,6.863,0,0,1,1.01-4.041l15.98-22.868H316.32a1.53,1.53,0,0,1-1.561-1.469Zm-97.074,37.011H209.6a1.658,1.658,0,0,1-1.469-1.378V265.855a1.53,1.53,0,0,1,1.561-1.469h7.531a1.5,1.5,0,0,1,1.469,1.378v5.418h.184c1.929-5.235,5.694-7.715,10.653-7.715,5.051,0,8.266,2.48,10.47,7.715a11.51,11.51,0,0,1,11.2-7.715,11.384,11.384,0,0,1,9.368,4.592c2.572,3.49,2.021,8.541,2.021,13.041v26.266a1.53,1.53,0,0,1-1.561,1.469h-7.99a1.578,1.578,0,0,1-1.469-1.469V285.325c0-1.745.184-6.153-.184-7.806-.643-2.755-2.388-3.582-4.776-3.582a5.408,5.408,0,0,0-4.867,3.4c-.827,2.112-.735,5.6-.735,7.99v22.041a1.53,1.53,0,0,1-1.561,1.469h-8.082a1.578,1.578,0,0,1-1.469-1.469V285.325c0-4.592.735-11.48-4.959-11.48-5.786,0-5.6,6.612-5.6,11.48v22.041a1.613,1.613,0,0,1-1.653,1.378Zm149.7-45.277c12.031,0,18.551,10.286,18.551,23.419,0,12.674-7.163,22.776-18.551,22.776-11.755,0-18.184-10.286-18.184-23.143-.092-12.949,6.429-23.052,18.184-23.052Zm0,8.541c-5.97,0-6.337,8.174-6.337,13.225s-.092,15.888,6.245,15.888c6.245,0,6.612-8.725,6.612-14.051a40.187,40.187,0,0,0-1.194-11.021C371.791,273.11,369.954,272.008,367.383,272.008Zm34.072,36.736h-8.082a1.578,1.578,0,0,1-1.469-1.469v-41.6a1.587,1.587,0,0,1,1.561-1.378H401a1.57,1.57,0,0,1,1.469,1.194v6.337h.184c2.3-5.694,5.418-8.357,11.021-8.357a10.7,10.7,0,0,1,9.459,4.868c2.112,3.306,2.112,8.908,2.112,12.949v26.174a1.511,1.511,0,0,1-1.561,1.286H415.6a1.671,1.671,0,0,1-1.469-1.286V284.866c0-4.592.551-11.2-5.051-11.2a5.317,5.317,0,0,0-4.684,3.306,19.066,19.066,0,0,0-1.286,7.9v22.409A1.682,1.682,0,0,1,401.455,308.744ZM293.544,288.907c0,3.123.092,5.786-1.469,8.633a6.5,6.5,0,0,1-5.6,3.674c-3.122,0-4.959-2.388-4.959-5.878,0-6.888,6.153-8.174,12.031-8.174Zm8.174,19.745a1.66,1.66,0,0,1-1.929.184,20.278,20.278,0,0,1-4.684-5.419c-4.408,4.5-7.623,5.878-13.317,5.878-6.8,0-12.123-4.225-12.123-12.582a13.747,13.747,0,0,1,8.633-13.225c4.408-1.929,10.561-2.3,15.245-2.847v-1.01c0-1.929.184-4.225-1.01-5.878a5.438,5.438,0,0,0-4.5-2.112c-3.122,0-5.878,1.561-6.521,4.867-.184.735-.643,1.469-1.378,1.469l-7.806-.827a1.414,1.414,0,0,1-1.194-1.653c1.837-9.551,10.378-12.4,18.092-12.4,3.949,0,9.092,1.01,12.215,4.041,3.949,3.674,3.582,8.633,3.582,13.96v12.582c0,3.765,1.561,5.419,3.031,7.531.551.735.643,1.653,0,2.112-1.745,1.378-4.684,3.949-6.337,5.327ZM187.47,288.907c0,3.123.092,5.786-1.469,8.633a6.5,6.5,0,0,1-5.6,3.674c-3.122,0-4.959-2.388-4.959-5.878,0-6.888,6.153-8.174,12.031-8.174Zm8.082,19.745a1.66,1.66,0,0,1-1.929.184,20.279,20.279,0,0,1-4.684-5.419c-4.408,4.5-7.623,5.878-13.317,5.878-6.8,0-12.123-4.225-12.123-12.582a13.747,13.747,0,0,1,8.633-13.225c4.408-1.929,10.562-2.3,15.245-2.847v-1.01c0-1.929.184-4.225-1.01-5.878a5.438,5.438,0,0,0-4.5-2.112c-3.123,0-5.878,1.561-6.521,4.867-.184.735-.643,1.469-1.378,1.469l-7.806-.827a1.414,1.414,0,0,1-1.194-1.653c1.837-9.551,10.378-12.4,18.092-12.4,3.949,0,9.092,1.01,12.215,4.041,3.949,3.674,3.582,8.633,3.582,13.96v12.582c0,3.765,1.561,5.419,3.031,7.531.551.735.643,1.653,0,2.112-1.745,1.378-4.684,3.949-6.337,5.327Z" transform="translate(0)"/>
  </g>
</svg>
