<svg xmlns="http://www.w3.org/2000/svg" xmlns:xlink="http://www.w3.org/1999/xlink" width="297.158" height="78.394" viewBox="0 0 297.158 78.394">
  <defs>
    <style>
      .cls-1 {
        fill: rgba(0,0,0,0);
      }

      .cls-10, .cls-13, .cls-2, .cls-3, .cls-4, .cls-6, .cls-7, .cls-8 {
        fill: #fff;
      }

      .cls-2 {
        stroke: #fcd109;
      }

      .cls-10, .cls-2, .cls-3, .cls-4, .cls-5, .cls-6, .cls-7, .cls-8, .cls-9 {
        stroke-width: 0.094px;
      }

      .cls-3 {
        stroke: #f8f3b5;
      }

      .cls-4 {
        stroke: #f7b402;
      }

      .cls-5, .cls-9 {
        fill: rgba(255,255,255,0);
      }

      .cls-5, .cls-7 {
        stroke: #bda727;
      }

      .cls-6 {
        stroke: #f7e62d;
      }

      .cls-8 {
        stroke: #0d69b3;
      }

      .cls-13, .cls-9 {
        stroke: #107bd4;
      }

      .cls-10 {
        stroke: #fff;
      }

      .cls-11 {
        clip-path: url(#clip-path);
      }

      .cls-12 {
        fill: none;
        stroke: #d1d1d1;
        stroke-width: 2px;
      }

      .cls-13 {
        stroke-width: 0.101px;
      }
    </style>
    <clipPath id="clip-path">
      <path id="Path_23" data-name="Path 23" class="cls-1" d="M273.651,189.266a1.175,1.175,0,0,1-.1-.554l-.089.011a1.259,1.259,0,0,0-1.074-.974c-.4-.033-.9-.022-1.129.354-.443.6-.233,1.362-.255,2.037,0,.044.011.122.011.166a7.736,7.736,0,0,1-.133,1.34.952.952,0,0,0-.1.432,10.21,10.21,0,0,1-1.074,3.011,1.117,1.117,0,0,0-.21.432,14.954,14.954,0,0,1-1.14,1.639,1.421,1.421,0,0,0-.177.188,10.807,10.807,0,0,1-.919.963c-.077.044-.133.1-.2.144a7.21,7.21,0,0,1-1.251.985c-.055.033-.111.077-.177.122A17.8,17.8,0,0,1,256,202.241a17.991,17.991,0,0,1-8.281-1.749c-.044-.022-.155-.066-.2-.089a11.072,11.072,0,0,1-1.273-.72c-.089-.044-.177-.1-.277-.144a8.462,8.462,0,0,1-1.162-.819c-.122-.111-.255-.2-.387-.3a9.385,9.385,0,0,1-1.151-1.052c-.089-.1-.177-.188-.266-.277a11.034,11.034,0,0,1-2.646-4.439,13.672,13.672,0,0,1-.465-4.141,1.484,1.484,0,0,0-1.9-.576c-.277.2-.31.565-.52.819a13,13,0,0,0,3.709,9.931.179.179,0,0,0,.122.177c.443.41.874.83,1.317,1.229a1.764,1.764,0,0,0,.266.221c.443.365.919.7,1.384,1.041a2.36,2.36,0,0,0,.277.177,12.448,12.448,0,0,0,1.838,1.019,1.439,1.439,0,0,0,.166.111,19.962,19.962,0,0,0,6.7,1.915,3.579,3.579,0,0,1,.764.077c1.107.066,2.214.033,3.321.011a19.917,19.917,0,0,0,9.809-3.144l.033.044c.089-.077.166-.144.255-.21.454-.332.9-.686,1.34-1.052a3.364,3.364,0,0,0,.31-.266,14.6,14.6,0,0,0,1.461-1.627l.066.033c.033-.055.089-.166.122-.221.376-.509.72-1.041,1.052-1.572.022-.033.077-.089.1-.122l-.044-.044c.033-.044.111-.133.144-.177a12.988,12.988,0,0,0,1.34-3.908.19.19,0,0,0,.122-.177,10.414,10.414,0,0,0,.122-1.306A7.544,7.544,0,0,0,273.651,189.266Z" transform="translate(-237.424 -187.737)"/>
    </clipPath>
  </defs>
  <g id="buy2img" transform="translate(1925.47 -47.015)">
    <path id="Path_9" data-name="Path 9" class="cls-2" d="M123.5,166.932c-.033-.111-.067-.221-.111-.332q-39.34.017-78.659.011a.457.457,0,0,0-.122.255q0,30.506-.011,61a4.935,4.935,0,0,0,1.561,2.812c.033.011.111.022.144.033a3.85,3.85,0,0,0,1.55.841c.41-.022.808.155,1.218.111H81.619a2.632,2.632,0,0,0,.93-.077c.011-.044.022-.122.033-.166s.022-.177.033-.243c.7-3.9,1.373-7.8,2.115-11.7l.066-.5c-3.011-.011-6.034,0-9.045-.011-.731-.022-1.483,0-2.214-.089-1.251-.055-2.513-.011-3.764-.133-1.55,0-3.089-.144-4.639-.144-1.218-.122-2.447-.077-3.676-.133-.8-.1-1.616-.055-2.424-.089-1.317-.144-2.657-.044-3.974-.188-1.395.011-2.79-.111-4.185-.144a.157.157,0,0,0,.022-.066c.465.011.919-.022,1.384-.033,1.03-.133,2.07-.044,3.1-.188,1.074,0,2.137-.144,3.211-.144.952-.133,1.915-.055,2.867-.188,1.118,0,2.214-.144,3.333-.155.919-.122,1.849-.055,2.768-.177,1.074.011,2.137-.155,3.211-.144,1.052-.122,2.125-.089,3.177-.2-.1-.409-.177-.819-.265-1.229-.078-.255-.387-.2-.587-.232q-3.6-.515-7.185-1.018c.155-.122.365-.067.542-.089,1.86-.144,3.709-.31,5.569-.443.421-.022.83-.1,1.251-.111a14.466,14.466,0,0,0-.554-1.738c-3.974-.609-7.949-1.151-11.912-1.8,1.03-.166,2.07-.243,3.1-.354l.089-.033c3.288-.343,6.587-.731,9.875-1.052,4.174-.022,8.336-.011,12.51,0,.133-.022.365.044.387-.144.343-1.793.675-3.587,1.018-5.38a26.862,26.862,0,0,1,2.391-7.218,21.287,21.287,0,0,1,8.237-8.812,23.735,23.735,0,0,1,10.883-3.033,17.1,17.1,0,0,1,3.687.077,5.153,5.153,0,0,1,2.247.952,3.769,3.769,0,0,1,1.063,1.661,26.428,26.428,0,0,1,1.041,4.539,3.508,3.508,0,0,1-.21,1.882,2.381,2.381,0,0,1-1.517.985c-2.137.554-4.373.033-6.51.554a7.921,7.921,0,0,0-4.517,2.757,12.842,12.842,0,0,0-2.4,5.713c-.3,1.816-.675,3.631-.974,5.458,2.1.011,4.218-.011,6.333.011a2.229,2.229,0,0,1,2.048,1.262,6.088,6.088,0,0,1,.2,3.244,11.806,11.806,0,0,1-1.007,3.509,3.963,3.963,0,0,1-2.236,2.137,4.465,4.465,0,0,1-1.672.166c-1.86,0-3.72.022-5.58,0-.3,1.362-.5,2.757-.764,4.141-.487,2.69-.963,5.391-1.45,8.093-.011.089-.022.277-.022.376.875.044,1.749,0,2.624.022,6.488,0,12.986-.011,19.485,0a3.879,3.879,0,0,0,2.015-.487c.365-.133.587-.454.908-.631s.4-.542.664-.775a3.69,3.69,0,0,0,.609-1.639.993.993,0,0,0,.166-.022C123.489,207.673,123.523,187.3,123.5,166.932Z" transform="translate(-1751.913 -106.307)"/>
    <path id="Path_10" data-name="Path 10" class="cls-3" d="M54.819,47.229a12.01,12.01,0,0,1,2.89-.166q27.118.017,54.236,0a9.126,9.126,0,0,1,3.011.875c.8.321,1.627.576,2.425.919a1.318,1.318,0,0,1,.409.332c-.011,1.461,0,2.934,0,4.406a3.731,3.731,0,0,0,.077,1.162c.233.033.354.21.509.354a14.994,14.994,0,0,1,2.015,1.317c1,.709,2.059,1.329,3.033,2.059a1.845,1.845,0,0,1-.077.852,4.61,4.61,0,0,0-.066.952q-39.34.017-78.659.011a3.85,3.85,0,0,0-.111-1.074c-.022-.288-.122-.664.155-.864,1.107-.775,2.281-1.472,3.365-2.292.676-.432,1.329-.875,1.982-1.317a1.408,1.408,0,0,0,.089-.742c0-1.605,0-3.211.011-4.816.376-.487,1.03-.542,1.55-.786,1.052-.4,2.115-.786,3.156-1.185m.066.188c-1.417.542-2.845,1.063-4.262,1.605-.188.033-.288.2-.387.343.011.089.022.244.022.332-.011,1.329,0,2.657-.011,3.986a2.779,2.779,0,0,0,.089.963,2.747,2.747,0,0,1-.476.4c-1.605,1.041-3.155,2.17-4.76,3.2-.277.166-.587.387-.5.753-.055.2.044.365.255.31,3.476-.022,6.941.022,10.418-.033,5.17,0,10.329.011,15.5,0l.077-.033a3.013,3.013,0,0,0,.708.033q14.049,0,28.109,0c2.945.011,5.9,0,8.857,0,4.871,0,9.754.044,14.625.022.144-.033.188-.133.133-.31-.011-.177.055-.421-.133-.531-.775-.365-1.439-.93-2.181-1.373-.265-.221-.609-.343-.808-.642-.764-.432-1.472-.963-2.225-1.439a2.256,2.256,0,0,1-.376-.354,2.7,2.7,0,0,0,.089-.731c-.011-1.406,0-2.812-.011-4.218a.612.612,0,0,0-.177-.62c-1.329-.476-2.646-.985-3.963-1.472a4.528,4.528,0,0,0-1.306-.376H55.6a4.319,4.319,0,0,0-.719.188Z" transform="translate(-1751.805)"/>
    <path id="Path_11" data-name="Path 11" class="cls-4" d="M96.609,70.9c.974.41,2.015.642,3,1.041.531.21.7.786.93,1.251a4.61,4.61,0,0,1-.786.6c-1.019.686-2.059,1.351-3.067,2.059a2.779,2.779,0,0,1-.089-.963C96.609,73.557,96.6,72.229,96.609,70.9Zm64.377,1.041c.985-.387,2.015-.653,3-1.041.011,1.406,0,2.812.011,4.218a2.7,2.7,0,0,1-.089.731c-.864-.6-1.738-1.162-2.6-1.749a10.2,10.2,0,0,1-1.262-.919c.232-.465.41-1.03.941-1.24Z" transform="translate(-1798.156 -21.202)"/>
    <path id="Path_12" data-name="Path 12" class="cls-5" d="M236.146,84.012a2.086,2.086,0,0,1,2.48,2.07,2.108,2.108,0,0,1-2.513,1.982,2.407,2.407,0,0,1-1.251-.852A2.078,2.078,0,0,1,234.7,85.2,1.979,1.979,0,0,1,236.146,84.012Zm31.585.7a2.128,2.128,0,0,1,2.07-.686,2.071,2.071,0,0,1,.52,3.819,2.138,2.138,0,0,1-2.546-.432A2.107,2.107,0,0,1,267.731,84.71Z" transform="translate(-1920.799 -32.819)"/>
    <path id="Path_13" data-name="Path 13" class="cls-6" d="M54.278,92.109a4.61,4.61,0,0,0,.786-.6l.077.078c.077.576.022,1.162.044,1.738-.033,1.727.033,3.465-.044,5.192-3.222,0-6.443-.022-9.665,0-.089-.365.221-.587.5-.753,1.605-1.03,3.155-2.159,4.76-3.2a2.746,2.746,0,0,0,.476-.4C52.218,93.46,53.259,92.8,54.278,92.109Zm60.181-.221a.689.689,0,0,1,.111-.387,10.218,10.218,0,0,0,1.262.919c.864.587,1.738,1.151,2.6,1.749a2.273,2.273,0,0,0,.376.354c.753.476,1.461,1.007,2.225,1.439.2.3.542.421.808.642.742.443,1.406,1.007,2.181,1.373.188.111.122.354.133.531-3.222.011-6.432-.011-9.654.011a13.169,13.169,0,0,1-.033-1.317c0-1.771-.022-3.543-.011-5.314Z" transform="translate(-1752.68 -39.521)"/>
    <path id="Path_14" data-name="Path 14" class="cls-2" d="M124.156,60.357c-3.222.011-6.432-.011-9.654.011a13.178,13.178,0,0,1-.033-1.317c0-1.771-.022-3.543-.011-5.314a.688.688,0,0,1,.111-.387c.233-.465.41-1.03.941-1.24.985-.387,2.015-.653,3-1.041a.611.611,0,0,0-.177-.62c-1.328-.476-2.646-.985-3.963-1.472a4.528,4.528,0,0,0-1.306-.376H56.479a4.311,4.311,0,0,0-.72.188c-1.417.542-2.845,1.063-4.262,1.605-.188.033-.288.2-.387.343.011.089.022.244.022.332.974.41,2.015.642,3,1.041.531.21.7.786.93,1.251l.077.077c.077.576.022,1.162.044,1.738-.033,1.727.033,3.465-.044,5.192-3.222,0-6.443-.022-9.665,0-.055.2.044.365.255.31,3.476-.022,6.941.022,10.418-.033,5.17,0,10.329.011,15.5,0l.077-.033a3.013,3.013,0,0,0,.708.033q14.049,0,28.109,0c2.945.011,5.9,0,8.857,0,4.871,0,9.754.044,14.625.022.144-.033.189-.133.133-.31Zm-57.58-6.609a1.979,1.979,0,0,1,1.45-1.185,2.086,2.086,0,0,1,2.48,2.07,2.108,2.108,0,0,1-2.513,1.982,2.407,2.407,0,0,1-1.251-.852A2.079,2.079,0,0,1,66.576,53.748Zm33.036-.487a2.128,2.128,0,0,1,2.07-.686,2.071,2.071,0,0,1,.52,3.819,2.138,2.138,0,0,1-2.546-.432A2.107,2.107,0,0,1,99.612,53.261Z" transform="translate(-1752.679 -1.371)"/>
    <path id="Path_15" data-name="Path 15" class="cls-2" d="M554.922,189.029c.155.033-.807-.924-.619-.968a2.065,2.065,0,0,1,1.661-.074c.812.425.61,1.421.518,1.79a2,2,0,0,1-.611.941,1.067,1.067,0,0,1-.561.244c.1-.542-.221-.631-.244-1.185Z" transform="translate(-2205.167 -125.177)"/>
    <path id="Path_16" data-name="Path 16" class="cls-2" d="M228.317,188.443c-.022.554-.343.642-.244,1.185a1.068,1.068,0,0,1-.561-.244,2,2,0,0,1-.611-.941c-.092-.369-.293-1.364.518-1.79a2.064,2.064,0,0,1,1.661.074c.188.044-.773,1-.619.968Z" transform="translate(-1913.953 -123.991)"/>
    <path id="Path_17" data-name="Path 17" class="cls-7" d="M294.885,261.645a.612.612,0,0,1,.5-.145,25.8,25.8,0,0,1-5.209,8,7.826,7.826,0,0,1-.788.617c-.267.2-.528.378-.788.565s-.508.355-.754.54a10.361,10.361,0,0,1-1.882,1.03,17.681,17.681,0,0,1-4.03,1.306,11.812,11.812,0,0,1-1.65.232,9.639,9.639,0,0,1-2.115.1c-.387.066-.731-.155-1.107-.111q-.49-.069-.976-.166t-.979-.232c-5.075-1.583-10.057-5.458-11.508-10.7a5.888,5.888,0,0,1-.1-1.07q.232.465.482.923a16.235,16.235,0,0,0,11,9.113c.393.179.818.116,1.194.271a3.091,3.091,0,0,1,1.007.1c1.14.022,2.281.011,3.421.011a1.674,1.674,0,0,0,.454-.1,14.582,14.582,0,0,0,5.5-1.369q.52-.236,1.024-.5.441-.232.86-.5t.8-.564a18.339,18.339,0,0,0,5.024-6.146C294.491,262.41,294.7,262.007,294.885,261.645Z" transform="translate(-1946.58 -190.701)"/>
    <path id="Path_18" data-name="Path 18" class="cls-8" d="M253.508,326.81a23.735,23.735,0,0,1,10.883-3.033,17.1,17.1,0,0,1,3.687.078,5.151,5.151,0,0,1,2.247.952,4.773,4.773,0,0,1-.952-.166,16.507,16.507,0,0,0-2.768-.133,29.074,29.074,0,0,0-7.938.941,18.635,18.635,0,0,0-3.93,1.594,19.616,19.616,0,0,0-5.591,4.583,23.994,23.994,0,0,0-5.181,11.315c-.376,2.2-.808,4.395-1.151,6.609-.554.055-1.118.022-1.672.022q-3.653-.017-7.307-.044c-.52.022-1.03-.1-1.55-.067-4.428.022-8.857-.011-13.285-.011l.089-.033c3.288-.343,6.587-.731,9.875-1.052,4.174-.022,8.336-.011,12.51,0,.133-.022.365.044.387-.144.343-1.793.675-3.587,1.018-5.38a26.869,26.869,0,0,1,2.392-7.218A21.287,21.287,0,0,1,253.508,326.81Z" transform="translate(-1907.007 -246.025)"/>
    <path id="Path_19" data-name="Path 19" class="cls-9" d="M154,331.841a29.076,29.076,0,0,1,7.938-.941,16.507,16.507,0,0,1,2.768.133,4.762,4.762,0,0,0,.952.166,3.769,3.769,0,0,1,1.063,1.661,26.426,26.426,0,0,1,1.041,4.539,3.508,3.508,0,0,1-.21,1.882,2.381,2.381,0,0,1-1.517.985c-2.137.554-4.373.033-6.51.554a7.921,7.921,0,0,0-4.517,2.757,12.842,12.842,0,0,0-2.4,5.713c-.3,1.816-.675,3.631-.974,5.458a9.831,9.831,0,0,0-.288,1.284c2.092.033,4.185,0,6.277.022.8-.022,1.594.022,2.391-.033a6.088,6.088,0,0,1,.2,3.244,11.8,11.8,0,0,1-1.007,3.509,3.963,3.963,0,0,1-2.236,2.137,4.464,4.464,0,0,1-1.672.166c-1.86,0-3.72.022-5.58,0-.3,1.362-.5,2.757-.764,4.141-.487,2.69-.963,5.391-1.45,8.093-.011.089-.022.277-.022.376v.011c-4.838,0-9.665.011-14.5,0,.011-.044.022-.122.033-.166s.022-.177.033-.243c.011.089.022.255.033.332.3.033.841.188.919-.243.753-4.074,1.45-8.17,2.225-12.245a2.332,2.332,0,0,0-.919-.011c-.044.155-.089.31-.144.465l.066-.5c-3.011-.011-6.034,0-9.045-.011-.731-.022-1.483,0-2.214-.088-1.251-.055-2.513-.011-3.764-.133-1.55,0-3.089-.144-4.639-.144-1.218-.122-2.447-.078-3.676-.133-.8-.1-1.616-.055-2.424-.088-1.317-.144-2.657-.044-3.974-.188-1.395.011-2.79-.111-4.185-.144a.158.158,0,0,0,.022-.066c.465.011.919-.022,1.384-.033,1.03-.133,2.07-.044,3.1-.188,1.074,0,2.137-.144,3.211-.144.952-.133,1.915-.055,2.867-.188,1.118,0,2.214-.144,3.333-.155.919-.122,1.849-.055,2.768-.177,1.074.011,2.137-.155,3.211-.144,1.052-.122,2.125-.089,3.177-.2-.1-.409-.177-.819-.265-1.229-.077-.255-.387-.2-.587-.232q-3.6-.515-7.185-1.019c.155-.122.365-.067.542-.089,1.86-.144,3.709-.31,5.569-.443.421-.022.83-.1,1.251-.111a14.476,14.476,0,0,0-.554-1.738c-3.974-.609-7.949-1.151-11.912-1.8,1.03-.166,2.07-.244,3.1-.354,4.428,0,8.857.033,13.285.011.52-.033,1.03.089,1.55.067q3.653.033,7.307.044c.554,0,1.118.033,1.672-.022.343-2.214.775-4.406,1.151-6.609a23.991,23.991,0,0,1,5.181-11.314,19.616,19.616,0,0,1,5.591-4.583A18.641,18.641,0,0,1,154,331.841Z" transform="translate(-1802.343 -252.418)"/>
    <path id="Path_20" data-name="Path 20" class="cls-8" d="M406.588,546.3c2.1.011,4.218-.011,6.333.011a2.229,2.229,0,0,1,2.048,1.262c-.8.055-1.594.011-2.391.033-2.092-.022-4.185.011-6.277-.022A9.791,9.791,0,0,1,406.588,546.3Zm-16.33,10.374a2.332,2.332,0,0,1,.919.011c-.775,4.074-1.472,8.17-2.225,12.245-.077.432-.62.277-.919.243-.011-.077-.022-.243-.033-.332.7-3.9,1.373-7.805,2.115-11.7C390.17,556.982,390.214,556.828,390.258,556.673Z" transform="translate(-2057.297 -443.97)"/>
    <path id="Path_21" data-name="Path 21" class="cls-10" d="M273.651,189.266a1.175,1.175,0,0,1-.1-.554l-.089.011a1.259,1.259,0,0,0-1.074-.974c-.4-.033-.9-.022-1.129.354-.443.6-.233,1.362-.255,2.037,0,.044.011.122.011.166a7.736,7.736,0,0,1-.133,1.34.952.952,0,0,0-.1.432,10.21,10.21,0,0,1-1.074,3.011,1.117,1.117,0,0,0-.21.432,14.954,14.954,0,0,1-1.14,1.639,1.421,1.421,0,0,0-.177.188,10.807,10.807,0,0,1-.919.963c-.077.044-.133.1-.2.144a7.21,7.21,0,0,1-1.251.985c-.055.033-.111.077-.177.122A17.8,17.8,0,0,1,256,202.241a17.991,17.991,0,0,1-8.281-1.749c-.044-.022-.155-.066-.2-.089a11.072,11.072,0,0,1-1.273-.72c-.089-.044-.177-.1-.277-.144a8.462,8.462,0,0,1-1.162-.819c-.122-.111-.255-.2-.387-.3a9.385,9.385,0,0,1-1.151-1.052c-.089-.1-.177-.188-.266-.277a11.034,11.034,0,0,1-2.646-4.439,13.672,13.672,0,0,1-.465-4.141,1.484,1.484,0,0,0-1.9-.576c-.277.2-.31.565-.52.819a13,13,0,0,0,3.709,9.931.179.179,0,0,0,.122.177c.443.41.874.83,1.317,1.229a1.764,1.764,0,0,0,.266.221c.443.365.919.7,1.384,1.041a2.36,2.36,0,0,0,.277.177,12.448,12.448,0,0,0,1.838,1.019,1.439,1.439,0,0,0,.166.111,19.962,19.962,0,0,0,6.7,1.915,3.579,3.579,0,0,1,.764.077c1.107.066,2.214.033,3.321.011a19.917,19.917,0,0,0,9.809-3.144l.033.044c.089-.077.166-.144.255-.21.454-.332.9-.686,1.34-1.052a3.364,3.364,0,0,0,.31-.266,14.6,14.6,0,0,0,1.461-1.627l.066.033c.033-.055.089-.166.122-.221.376-.509.72-1.041,1.052-1.572.022-.033.077-.089.1-.122l-.044-.044c.033-.044.111-.133.144-.177a12.988,12.988,0,0,0,1.34-3.908.19.19,0,0,0,.122-.177,10.414,10.414,0,0,0,.122-1.306A7.544,7.544,0,0,0,273.651,189.266Z" transform="translate(-1923.392 -125.104)"/>
    <g id="Group_11" data-name="Group 11" class="cls-11" transform="translate(-1685.967 62.633)">
      <path id="Path_22" data-name="Path 22" class="cls-12" d="M230.167,188.09c.9.281,2.959-.427,3.543.221m-3.026,2.509c.86-.3,2.7-1.008,3.469-.59m-2.583,3.321c.416.135,1.235-.6,1.642-.81a6.046,6.046,0,0,1,1.9-.666M232.9,196.43a6.259,6.259,0,0,1,1.561-1.548c.614-.429,2.294-1.575,3.015-1.183m-3.321,4.8c.487-.387.685-1.071,1.2-1.478a10.43,10.43,0,0,1,2.2-.884m-1.31,3.893c.146-1.07,1.232-2.362,2.27-2.27m-.664,3.764c.548-.055,1.012-1.282,1.382-1.7a3.529,3.529,0,0,1,1.865-1.034m-.074,4.059c-.035-.775.765-3,1.7-2.878m.664,3.617c-.039-.915.434-3.669,1.55-3.764m.886,5.24c-.212-1.28-.2-3.132.812-4.059m2.214,4.355c-.113-1.067-1.173-3.224,0-4.059m3.247,3.321a6.145,6.145,0,0,1-.591-3.543m3.69,3.026a7.358,7.358,0,0,1-1.022-2.2c-.088-.492.067-1.192-.011-1.567M257.77,203c-.847-.554-1.082-2.59-.812-3.469m3.321,2.362a8.609,8.609,0,0,1-1.255-3.764m3.69,1.4c-.936-.63-2.13-1.774-1.993-3.026m4.576,1.033a7.947,7.947,0,0,1-3.986-2.731m5.166.3c-1.026-.22-4.415-1.542-4.207-2.878m5.314.3c-1.429-.524-3.509-1-4.65-1.993m5.388-.369a14.445,14.445,0,0,1-3.105-.517c-1.016-.175-1.958-.518-2.947-.738m5.166-1.033a12.907,12.907,0,0,1-4.945-1.033" transform="translate(-230.97 -186.935)"/>
    </g>
    <g id="Group_12" data-name="Group 12" transform="translate(-1925.412 68.71)">
      <path id="Path_24" data-name="Path 24" class="cls-13" d="M-1871.686,242.811c1.6-.242,3.451-.393,4.813.605a3.256,3.256,0,0,1,1.09,2.815,4.9,4.9,0,0,1-2.24,4.389,7.631,7.631,0,0,1-4.42.636,3.343,3.343,0,0,1-2.512-1.574C-1876.105,247.049-1874.683,243.325-1871.686,242.811Zm-48.007,1.907a1.893,1.893,0,0,1,1.846-1.695c6.992,0,13.954.03,20.916,0a2.025,2.025,0,0,1,1.937.938c.514.908.06,1.907,0,2.845-.212,1.271-.151,2.966-1.634,3.45-5.085.151-10.171,0-15.256.061-.484,3.208-.938,6.387-1.423,9.565,0,.121.03.394.03.514,3.723-.03,7.446,0,11.169-.03a1.91,1.91,0,0,1,2.028,1.907c-.091,1.12-.333,2.21-.484,3.33a1.971,1.971,0,0,1-1.514,1.6c-4.147.091-8.354-.091-12.5.091-.666,4.571-1.453,9.141-2.149,13.712a1.88,1.88,0,0,1-1.725,1.725q-2.588.046-5.176,0a1.849,1.849,0,0,1-1.725-2.27Q-1922.583,262.577-1919.693,244.718Zm30.753-1.635c1.574-.121,3.178-.03,4.752-.06a1.95,1.95,0,0,1,2.028,1.7,21.038,21.038,0,0,1-.3,2.361c-1.271,8.112-2.573,16.224-3.844,24.336a9.493,9.493,0,0,0-.121,4.026c.454,1.332,2.482.757,2.966,2.149a10.2,10.2,0,0,1-.121,3.451c-.091,1.513-1.816,1.846-3,2.18-2.573.484-5.691.121-7.537-2-1.332-1.543-1.423-3.723-1.15-5.66q2.406-15.437,4.843-30.9A1.831,1.831,0,0,1-1888.94,243.083Zm60.084,1.635a1.913,1.913,0,0,1,1.816-1.695h4.6a1.921,1.921,0,0,1,1.816,2.3c-1.059,6.72-2.149,13.44-3.208,20.159,1.6-.242,3.42-.545,4.54-1.846a28.153,28.153,0,0,0,4.57-7.143c.393-1,.605-2.452,1.907-2.634,1.725-.061,3.481-.03,5.206,0a1.827,1.827,0,0,1,1.665,2.391,21.527,21.527,0,0,1-2,4.51,34.2,34.2,0,0,1-6.235,7.9c1.12,3.36,2.543,6.629,3.784,9.928.363,1.09,1.241,2.361.424,3.42-.938,1.271-2.694.635-4,.787-1.362-.151-3.33.545-4.086-1-1.423-3.3-2.6-6.689-4.056-9.989a18.29,18.29,0,0,1-2.573-.03l-.242.484c-.454,3.027-.938,6.054-1.423,9.08a1.8,1.8,0,0,1-1.543,1.423c-1.6.061-3.239.03-4.874.03a1.887,1.887,0,0,1-1.634-1.059,3.342,3.342,0,0,1-.03-1.967Q-1831.611,262.243-1828.856,244.718Zm84.118,3.3a1.883,1.883,0,0,1,1.877-1.393c1.211.03,2.452-.03,3.693.03a1.816,1.816,0,0,1,1.665,2c-.182,1.725-.605,3.451-.726,5.176,1.18,0,2.391-.03,3.572,0a1.868,1.868,0,0,1,1.755,2.119c-.151.939-.363,1.847-.515,2.785a1.969,1.969,0,0,1-1.574,1.544c-1.453.091-2.875-.061-4.3.091-.605,4.056-1.271,8.112-1.907,12.168a4.286,4.286,0,0,0,.393,2.815c.817,1,2.24.635,3.39.757a1.992,1.992,0,0,1,1.332,2.18c-.151,1.029-.182,2.058-.424,3.057-.363,1.12-1.665,1.332-2.664,1.6-2.754.727-5.932.727-8.384-.878-2.27-1.544-2.633-4.54-2.391-7.083.635-4.9,1.635-9.777,2.179-14.711-.848.03-1.877.151-2.512-.605-.726-.757-.363-1.877-.242-2.815.182-1,.151-2.3,1.241-2.845a12.342,12.342,0,0,1,2.815-.212c.575-1.937,1.12-3.874,1.725-5.781Zm-17.1,9.807a16.482,16.482,0,0,1,6.84-4.268,1.92,1.92,0,0,1,2.6,1.725c-.212,1.665-.605,3.3-.878,4.934a1.927,1.927,0,0,1-1.635,1.6,14.313,14.313,0,0,0-7.6,4.419c-.514.636-1.271,1.241-1.362,2.119-.635,4.238-1.3,8.475-1.967,12.713a1.868,1.868,0,0,1-1.816,1.726h-4.6a1.894,1.894,0,0,1-1.877-2.058c1.332-8.385,2.664-16.739,3.965-25.123a1.845,1.845,0,0,1,1.544-1.756c1.12-.061,2.24-.03,3.39-.03a1.818,1.818,0,0,1,1.755,1.756c0,1.3-.121,2.633-.151,3.965A13.746,13.746,0,0,0-1761.84,257.824Zm-113.146-3.844a34.068,34.068,0,0,1,4.964-.151,1.861,1.861,0,0,1,2.088,1.423,9.714,9.714,0,0,1-.212,2.482q-1.862,11.669-3.693,23.337a1.858,1.858,0,0,1-1.755,1.725c-1.635,0-3.269.03-4.934-.03a1.9,1.9,0,0,1-1.514-2.3c1.3-8.082,2.543-16.133,3.844-24.215A2.414,2.414,0,0,1-1874.986,253.98Zm97.951.394a48.391,48.391,0,0,0-13.682-1c-4.086.515-8.2,2.361-10.715,5.721a21,21,0,0,0-3.875,15.861,10.73,10.73,0,0,0,3.723,6.931,9.191,9.191,0,0,0,7.113,1.362c3.39-.666,6.265-2.845,8.627-5.267.121,1.029-.121,2.058-.061,3.057a1.877,1.877,0,0,0,1.846,1.755h3.088a1.855,1.855,0,0,0,1.725-1.725q1.952-12.3,3.874-24.548a1.911,1.911,0,0,0-1.665-2.149Zm-8.505,14.257a23.343,23.343,0,0,1-4.813,6.084c-1.089.908-2.482,1.847-3.965,1.544-1.453-.3-2.149-1.816-2.482-3.118a13.311,13.311,0,0,1,1.846-10.019,6.471,6.471,0,0,1,3.784-2.815,13.2,13.2,0,0,1,6.69.333l.121.121C-1784.633,263.394-1785.148,266-1785.541,268.63Zm-50.912-4.54a12.518,12.518,0,0,0-2.966-8.475,7.659,7.659,0,0,0-5.751-2.391c-3.511-.121-6.811,1.6-9.383,3.9-.575.454-.969,1.12-1.6,1.483,0-1,.091-2,.06-3.027a1.8,1.8,0,0,0-1.755-1.756h-3.088a1.9,1.9,0,0,0-1.816,1.786q-2.86,18.161-5.751,36.323a1.879,1.879,0,0,0,1.847,2.24,40.556,40.556,0,0,0,5.085-.121c1.332-.363,1.3-1.907,1.513-3.027.484-2.664.818-5.327,1.12-8.021,5.963,1.15,12.895.363,17.344-4.147A20.9,20.9,0,0,0-1836.453,264.09Zm-8.475,3.057a12.2,12.2,0,0,1-3.117,7.628c-2.512,2.392-6.327,2.058-9.414,1.241a2.063,2.063,0,0,1-.182-.363c.484-2.633.726-5.3,1.332-7.9,1.7-2.785,3.753-5.6,6.689-7.143a2.807,2.807,0,0,1,3.36.605C-1844.928,262.879-1844.807,265.119-1844.928,267.147Z" transform="translate(1925.412 -242.632)"/>
    </g>
  </g>
</svg>
