<svg xmlns="http://www.w3.org/2000/svg" width="48.88" height="65.104" viewBox="0 0 48.88 65.104">
  <defs>
    <style>
      .cls-1 {
        fill: #fff;
      }
    </style>
  </defs>
  <g id="feature3img" transform="translate(-0.284)">
    <path id="Path_4" data-name="Path 4" class="cls-1" d="M43.9,56.185h-.091a5.021,5.021,0,0,0-3.384,1.287,5.278,5.278,0,0,0-4.9-3.576A5.084,5.084,0,0,0,31.9,55.458a5.2,5.2,0,0,0-4.642-2.969h-.1a4.766,4.766,0,0,0-2.989,1V40.874a5.413,5.413,0,0,0-5.259-5.527,5.4,5.4,0,0,0-5.245,5.523L13.64,65.891l-1.416-1.72a7.142,7.142,0,0,0-5.047-2.651,7.027,7.027,0,0,0-5.265,1.863L.681,64.4a1.1,1.1,0,0,0-.273,1.349L12.387,88.779a12.351,12.351,0,0,0,10.876,6.833h13.5V95.6c6.845,0,12.394-5.939,12.4-13.232,0-3.263-.01-5.7-.007-7.666.007-5.274,0-7.22-.012-13.03A5.376,5.376,0,0,0,43.9,56.185ZM46.95,74.694c0,1.972-.005,4.413-.009,7.676-.006,6.087-4.6,11.051-10.243,11.051H23.263a10.169,10.169,0,0,1-8.932-5.654L2.759,65.532l.571-.476c.014-.012.028-.026.042-.038a4.862,4.862,0,0,1,3.65-1.311,4.97,4.97,0,0,1,3.506,1.857l3.352,4.079a1.095,1.095,0,0,0,1.941-.694l.02-28.077a3.224,3.224,0,0,1,3.068-3.334,3.224,3.224,0,0,1,3.067,3.337V57.8c0,.059,0,.118,0,.178,0,.026,0,.052,0,.077V65.3a1.1,1.1,0,0,0,2.19,0V57.839a3.071,3.071,0,0,1,2.989-3.16h.1a3.2,3.2,0,0,1,3.074,3.3V64.6a1.1,1.1,0,0,0,2.19,0v-5.2a3.028,3.028,0,1,1,6.023,0v4.9a1.1,1.1,0,0,0,2.19,0V61.656a3.182,3.182,0,0,1,3.08-3.28H43.9a3.178,3.178,0,0,1,3.042,3.3c.013,5.806.011,7.75,0,13.02Zm0,0" transform="translate(0 -30.508)"/>
    <path id="Path_5" data-name="Path 5" class="cls-1" d="M65.7,10.838a1.1,1.1,0,0,0,1.1-1.1,7.589,7.589,0,0,1,15.178,0,1.1,1.1,0,0,0,2.19,0,9.78,9.78,0,0,0-19.559,0A1.1,1.1,0,0,0,65.7,10.838Zm0,0" transform="translate(-55.519)"/>
  </g>
</svg>
