<svg xmlns="http://www.w3.org/2000/svg" width="49.333" height="49.333" viewBox="0 0 49.333 49.333">
  <defs>
    <style>
      .cls-1 {
        fill: #fff;
      }
    </style>
  </defs>
  <g id="feature2img" transform="translate(-71.751 -42.556)">
    <g id="Group_5" data-name="Group 5" transform="translate(64.333 21.556)">
      <g id="Group_4" data-name="Group 4">
        <path id="Path_2" data-name="Path 2" class="cls-1" d="M152.667,160a24.667,24.667,0,1,0,24.667,24.667A24.691,24.691,0,0,0,152.667,160Zm0,45.222a20.556,20.556,0,1,1,20.556-20.556A20.579,20.579,0,0,1,152.667,205.222Z" transform="translate(-120.582 -139)"/>
      </g>
    </g>
    <g id="Group_7" data-name="Group 7" transform="translate(33.436 28.778)">
      <g id="Group_6" data-name="Group 6">
        <path id="Path_3" data-name="Path 3" class="cls-1" d="M187.111,202.667a16.461,16.461,0,0,0-16.444,16.444,2.056,2.056,0,1,0,4.111,0,12.349,12.349,0,0,1,12.333-12.333,2.056,2.056,0,1,0,0-4.111Z" transform="translate(-124.249 -180.667)"/>
      </g>
    </g>
  </g>
</svg>
