<svg id="feature1img" xmlns="http://www.w3.org/2000/svg" width="75" height="58.583" viewBox="0 0 75 58.583">
  <defs>
    <style>
      .cls-1 {
        fill: #fff;
      }
    </style>
  </defs>
  <g id="Group_3" data-name="Group 3">
    <g id="Group_2" data-name="Group 2">
      <path id="Path_1" data-name="Path 1" class="cls-1" d="M64.062,62.583H54.687a1.557,1.557,0,0,1-1.481-1.054l-.987-2.923a7.8,7.8,0,0,0-7.413-5.272H30.194A7.789,7.789,0,0,0,22.784,58.6L21.8,61.528a1.564,1.564,0,0,1-1.484,1.054H10.938A10.877,10.877,0,0,0,0,73.375v27.75a10.877,10.877,0,0,0,10.938,10.792H64.063A10.877,10.877,0,0,0,75,101.125V73.375A10.877,10.877,0,0,0,64.062,62.583Zm7.813,38.542a7.772,7.772,0,0,1-7.812,7.708H10.938a7.772,7.772,0,0,1-7.812-7.708V73.375a7.772,7.772,0,0,1,7.812-7.708h9.375a4.68,4.68,0,0,0,4.447-3.16l.991-2.929a4.673,4.673,0,0,1,4.444-3.16H44.806a4.679,4.679,0,0,1,4.447,3.163l.987,2.926a4.68,4.68,0,0,0,4.447,3.16h9.375a7.772,7.772,0,0,1,7.812,7.708v27.75Z" transform="translate(0 -53.333)"/>
    </g>
  </g>
  <g id="Group_5" data-name="Group 5" transform="translate(19 15.417)">
    <g id="Group_4" data-name="Group 4">
      <path id="Path_2" data-name="Path 2" class="cls-1" d="M146.5,160A18.5,18.5,0,1,0,165,178.5,18.519,18.519,0,0,0,146.5,160Zm0,33.917A15.417,15.417,0,1,1,161.917,178.5,15.434,15.434,0,0,1,146.5,193.917Z" transform="translate(-128 -160)"/>
    </g>
  </g>
  <g id="Group_7" data-name="Group 7" transform="translate(25.077 21.583)">
    <g id="Group_6" data-name="Group 6">
      <path id="Path_3" data-name="Path 3" class="cls-1" d="M183,202.667A12.346,12.346,0,0,0,170.667,215a1.542,1.542,0,1,0,3.083,0,9.261,9.261,0,0,1,9.25-9.25,1.542,1.542,0,1,0,0-3.083Z" transform="translate(-170.667 -202.667)"/>
    </g>
  </g>
</svg>
