<svg xmlns="http://www.w3.org/2000/svg" version="1.1" xmlns:xlink="http://www.w3.org/1999/xlink" xmlns:svgjs="http://svgjs.com/svgjs" width="1440" height="560" preserveAspectRatio="none" viewBox="0 0 1440 560">
    <g mask="url(&quot;#SvgjsMask1000&quot;)" fill="none">
        <rect width="1440" height="560" x="0" y="0" fill="rgba(219, 219, 219, 1)"></rect>
        <path d="M0,489.82C94.299,466.917,188.476,467.866,280.057,435.778C396.712,394.905,550.827,387.319,606.921,277.172C662.658,167.726,556.399,44.055,541.645,-77.877C526.421,-203.693,582.921,-340.274,518.968,-449.688C452.025,-564.219,328.726,-660.215,196.335,-668.654C65.999,-676.962,-19.039,-528.403,-144.457,-491.977C-270.473,-455.377,-443.651,-558.051,-528.662,-458.088C-613.946,-357.804,-485.435,-202.765,-501.523,-72.108C-517.091,54.328,-642.026,157.651,-619.925,283.11C-596.736,414.743,-510.452,554.7,-383.655,596.98C-255.089,639.85,-131.696,521.806,0,489.82" fill="#bfbfbf"></path>
        <path d="M1440 1051.467C1533.256 1066.451 1623.759 1020.0899999999999 1707.016 975.486 1795.941 927.846 1898.437 880.097 1935.22 786.16 1971.733 692.912 1924.564 590.315 1895.342 494.532 1869.964 411.348 1825.349 340.25800000000004 1777.104 267.898 1721.819 184.97899999999998 1686.249 74.39999999999998 1592.564 40.41399999999999 1498.506 6.293000000000006 1398.229 63.071000000000026 1303.818 96.20499999999998 1214.004 127.72500000000002 1119.623 156.445 1057.199 228.301 994.739 300.199 959.8720000000001 395.861 960.764 491.096 961.5989999999999 580.194 1013.636 657.778 1061.924 732.6610000000001 1104.442 798.596 1162.988 847.137 1222.966 897.712 1292.146 956.047 1350.654 1037.112 1440 1051.467" fill="#f8f8f8"></path>
    </g>
    <defs>
        <mask id="SvgjsMask1000">
            <rect width="1440" height="560" fill="#ffffff"></rect>
        </mask>
    </defs>
</svg>